<?xml version="1.0" encoding="UTF-8" standalone="no"?>
<!-- Created with Inkscape (http://www.inkscape.org/) -->

<svg
   xmlns:dc="http://purl.org/dc/elements/1.1/"
   xmlns:cc="http://creativecommons.org/ns#"
   xmlns:rdf="http://www.w3.org/1999/02/22-rdf-syntax-ns#"
   xmlns:svg="http://www.w3.org/2000/svg"
   xmlns="http://www.w3.org/2000/svg"
   xmlns:sodipodi="http://sodipodi.sourceforge.net/DTD/sodipodi-0.dtd"
   xmlns:inkscape="http://www.inkscape.org/namespaces/inkscape"
   width="744.09448819"
   height="1052.3622047"
   id="svg2"
   version="1.1"
   inkscape:version="0.47 r22583"
   sodipodi:docname="Logo Ideen 2.svg">
  <defs
     id="defs4">
    <inkscape:perspective
       sodipodi:type="inkscape:persp3d"
       inkscape:vp_x="NaN : NaN : 1"
       inkscape:vp_y="NaN : NaN : 0"
       inkscape:vp_z="NaN : NaN : 1"
       inkscape:persp3d-origin="NaN : NaN : 1"
       id="perspective10" />
    <inkscape:perspective
       id="perspective3657"
       inkscape:persp3d-origin="0.5 : 0.33333333 : 1"
       inkscape:vp_z="1 : 0.5 : 1"
       inkscape:vp_y="0 : 1000 : 0"
       inkscape:vp_x="0 : 0.5 : 1"
       sodipodi:type="inkscape:persp3d" />
    <inkscape:perspective
       id="perspective3678"
       inkscape:persp3d-origin="0.5 : 0.33333333 : 1"
       inkscape:vp_z="1 : 0.5 : 1"
       inkscape:vp_y="0 : 1000 : 0"
       inkscape:vp_x="0 : 0.5 : 1"
       sodipodi:type="inkscape:persp3d" />
    <inkscape:perspective
       id="perspective3699"
       inkscape:persp3d-origin="0.5 : 0.33333333 : 1"
       inkscape:vp_z="1 : 0.5 : 1"
       inkscape:vp_y="0 : 1000 : 0"
       inkscape:vp_x="0 : 0.5 : 1"
       sodipodi:type="inkscape:persp3d" />
    <inkscape:perspective
       id="perspective3721"
       inkscape:persp3d-origin="0.5 : 0.33333333 : 1"
       inkscape:vp_z="1 : 0.5 : 1"
       inkscape:vp_y="0 : 1000 : 0"
       inkscape:vp_x="0 : 0.5 : 1"
       sodipodi:type="inkscape:persp3d" />
    <inkscape:perspective
       id="perspective3743"
       inkscape:persp3d-origin="0.5 : 0.33333333 : 1"
       inkscape:vp_z="1 : 0.5 : 1"
       inkscape:vp_y="0 : 1000 : 0"
       inkscape:vp_x="0 : 0.5 : 1"
       sodipodi:type="inkscape:persp3d" />
    <inkscape:perspective
       id="perspective3765"
       inkscape:persp3d-origin="0.5 : 0.33333333 : 1"
       inkscape:vp_z="1 : 0.5 : 1"
       inkscape:vp_y="0 : 1000 : 0"
       inkscape:vp_x="0 : 0.5 : 1"
       sodipodi:type="inkscape:persp3d" />
    <inkscape:perspective
       id="perspective3787"
       inkscape:persp3d-origin="0.5 : 0.33333333 : 1"
       inkscape:vp_z="1 : 0.5 : 1"
       inkscape:vp_y="0 : 1000 : 0"
       inkscape:vp_x="0 : 0.5 : 1"
       sodipodi:type="inkscape:persp3d" />
    <inkscape:perspective
       id="perspective3809"
       inkscape:persp3d-origin="0.5 : 0.33333333 : 1"
       inkscape:vp_z="1 : 0.5 : 1"
       inkscape:vp_y="0 : 1000 : 0"
       inkscape:vp_x="0 : 0.5 : 1"
       sodipodi:type="inkscape:persp3d" />
    <inkscape:perspective
       id="perspective3809-2"
       inkscape:persp3d-origin="0.5 : 0.33333333 : 1"
       inkscape:vp_z="1 : 0.5 : 1"
       inkscape:vp_y="0 : 1000 : 0"
       inkscape:vp_x="0 : 0.5 : 1"
       sodipodi:type="inkscape:persp3d" />
    <inkscape:perspective
       id="perspective3848"
       inkscape:persp3d-origin="0.5 : 0.33333333 : 1"
       inkscape:vp_z="1 : 0.5 : 1"
       inkscape:vp_y="0 : 1000 : 0"
       inkscape:vp_x="0 : 0.5 : 1"
       sodipodi:type="inkscape:persp3d" />
    <inkscape:perspective
       id="perspective3899"
       inkscape:persp3d-origin="0.5 : 0.33333333 : 1"
       inkscape:vp_z="1 : 0.5 : 1"
       inkscape:vp_y="0 : 1000 : 0"
       inkscape:vp_x="0 : 0.5 : 1"
       sodipodi:type="inkscape:persp3d" />
    <inkscape:perspective
       id="perspective3924"
       inkscape:persp3d-origin="0.5 : 0.33333333 : 1"
       inkscape:vp_z="1 : 0.5 : 1"
       inkscape:vp_y="0 : 1000 : 0"
       inkscape:vp_x="0 : 0.5 : 1"
       sodipodi:type="inkscape:persp3d" />
    <inkscape:perspective
       id="perspective4051"
       inkscape:persp3d-origin="0.5 : 0.33333333 : 1"
       inkscape:vp_z="1 : 0.5 : 1"
       inkscape:vp_y="0 : 1000 : 0"
       inkscape:vp_x="0 : 0.5 : 1"
       sodipodi:type="inkscape:persp3d" />
    <inkscape:perspective
       id="perspective4091"
       inkscape:persp3d-origin="0.5 : 0.33333333 : 1"
       inkscape:vp_z="1 : 0.5 : 1"
       inkscape:vp_y="0 : 1000 : 0"
       inkscape:vp_x="0 : 0.5 : 1"
       sodipodi:type="inkscape:persp3d" />
    <inkscape:perspective
       id="perspective4124"
       inkscape:persp3d-origin="0.5 : 0.33333333 : 1"
       inkscape:vp_z="1 : 0.5 : 1"
       inkscape:vp_y="0 : 1000 : 0"
       inkscape:vp_x="0 : 0.5 : 1"
       sodipodi:type="inkscape:persp3d" />
    <inkscape:perspective
       id="perspective2869"
       inkscape:persp3d-origin="0.5 : 0.33333333 : 1"
       inkscape:vp_z="1 : 0.5 : 1"
       inkscape:vp_y="0 : 1000 : 0"
       inkscape:vp_x="0 : 0.5 : 1"
       sodipodi:type="inkscape:persp3d" />
    <inkscape:perspective
       id="perspective3672"
       inkscape:persp3d-origin="0.5 : 0.33333333 : 1"
       inkscape:vp_z="1 : 0.5 : 1"
       inkscape:vp_y="0 : 1000 : 0"
       inkscape:vp_x="0 : 0.5 : 1"
       sodipodi:type="inkscape:persp3d" />
    <inkscape:perspective
       id="perspective3725"
       inkscape:persp3d-origin="0.5 : 0.33333333 : 1"
       inkscape:vp_z="1 : 0.5 : 1"
       inkscape:vp_y="0 : 1000 : 0"
       inkscape:vp_x="0 : 0.5 : 1"
       sodipodi:type="inkscape:persp3d" />
    <inkscape:perspective
       id="perspective3747"
       inkscape:persp3d-origin="0.5 : 0.33333333 : 1"
       inkscape:vp_z="1 : 0.5 : 1"
       inkscape:vp_y="0 : 1000 : 0"
       inkscape:vp_x="0 : 0.5 : 1"
       sodipodi:type="inkscape:persp3d" />
    <inkscape:perspective
       id="perspective3769"
       inkscape:persp3d-origin="0.5 : 0.33333333 : 1"
       inkscape:vp_z="1 : 0.5 : 1"
       inkscape:vp_y="0 : 1000 : 0"
       inkscape:vp_x="0 : 0.5 : 1"
       sodipodi:type="inkscape:persp3d" />
    <inkscape:perspective
       id="perspective3791"
       inkscape:persp3d-origin="0.5 : 0.33333333 : 1"
       inkscape:vp_z="1 : 0.5 : 1"
       inkscape:vp_y="0 : 1000 : 0"
       inkscape:vp_x="0 : 0.5 : 1"
       sodipodi:type="inkscape:persp3d" />
  </defs>
  <sodipodi:namedview
     id="base"
     pagecolor="#ffffff"
     bordercolor="#666666"
     borderopacity="1.0"
     inkscape:pageopacity="0.0"
     inkscape:pageshadow="2"
     inkscape:zoom="1.17"
     inkscape:cx="425.36458"
     inkscape:cy="635.17659"
     inkscape:document-units="px"
     inkscape:current-layer="layer1"
     showgrid="false"
     inkscape:window-width="1304"
     inkscape:window-height="746"
     inkscape:window-x="54"
     inkscape:window-y="-8"
     inkscape:window-maximized="1" />
  <metadata
     id="metadata7">
    <rdf:RDF>
      <cc:Work
         rdf:about="">
        <dc:format>image/svg+xml</dc:format>
        <dc:type
           rdf:resource="http://purl.org/dc/dcmitype/StillImage" />
        <dc:title />
      </cc:Work>
    </rdf:RDF>
  </metadata>
  <g
     inkscape:label="Layer 1"
     inkscape:groupmode="layer"
     id="layer1">
    <g
       id="g4108"
       transform="matrix(2.3259265,0,0,2.3259265,-349.52245,-711.84699)">
      <path
         style="fill:#f7cd0d"
         d="m 223.16547,625.60193 c -2.66863,-0.4615 -5.51362,-0.79466 -7.83993,-2.27723 -1.19815,-2.09569 -4.36791,-1.70297 -5.19516,-4.0878 -1.43997,-0.97639 -2.52361,-2.88321 -0.28296,-3.71493 1.02392,-0.63346 1.69795,-1.93673 0.15203,-0.78992 -1.20442,1.52594 -4.34756,2.20639 -4.25151,-0.52919 -0.7588,-2.40944 -2.52947,-4.65041 -2.26158,-7.30083 1.85783,-0.98482 4.27599,-0.61575 6.3594,-1.00586 2.03364,0.22712 4.97698,-1.31603 6.4599,0.37835 0.23157,0.86742 1.32874,1.95775 1.03582,2.78077 -1.67998,1.92385 -4.17462,2.91282 -5.79512,4.90315 2.36598,-1.06231 4.17087,-3.02822 6.44166,-4.23956 1.16081,0.25683 2.36138,1.4448 3.36196,2.20455 -0.96518,3.73051 -2.58639,7.24241 -3.85729,10.86518 0.11202,2.07326 2.75817,0.58142 2.51559,-1.04903 1.01972,-3.02205 2.00197,-6.09072 3.51232,-8.9098 1.11521,-0.61121 2.61678,-0.0361 3.89879,-0.0291 0.44877,0.79171 0.56925,1.97298 0.89171,2.91457 0.7517,2.90015 1.70978,5.78244 2.15047,8.73503 2.02807,0.83125 2.2354,-1.22072 1.28339,-2.54533 -0.82311,-3.20856 -1.76406,-6.42798 -2.14983,-9.71933 1.60643,-1.79098 4.10005,-2.35124 5.58612,-0.0793 2.28302,2.04267 4.6437,4.01955 6.74322,6.25257 1.84331,2.2218 -2.42308,3.21725 -3.85538,4.10755 -1.97847,1.09814 -3.95363,2.29448 -6.25736,2.56435 -2.83601,0.55584 -5.76466,0.7473 -8.64626,0.57116 z m 20.60901,-8.19225 c -3.18188,-2.56143 -6.28624,-5.39609 -9.19445,-8.31714 0.0197,-1.67487 1.54299,-4.12411 3.5945,-3.11345 3.57359,0.50629 7.14392,1.1716 10.66908,1.87961 2.38871,-2.02377 -2.06202,-2.3054 -3.40022,-2.53763 -2.91935,-0.5354 -5.84859,-1.02835 -8.74971,-1.65585 -0.73629,-2.19815 -0.37763,-4.48128 2.31636,-4.717 2.94554,-1.17056 5.9599,-2.18414 8.87433,-3.4224 0.85406,-0.80111 1.02073,-2.33989 1.50074,-0.49661 0.84831,2.02343 0.57353,4.29961 1.3673,6.34416 0.35755,2.92595 -0.3789,5.87668 -1.22208,8.6571 -0.89586,2.1798 -2.10508,4.21617 -3.41613,6.15583 -0.54215,0.44469 -1.60902,2.30663 -2.33972,1.22338 z m -40.57936,-7.12663 c 0.55182,-1.26671 0.61168,0.83433 0,0 z m 0.0605,-5.73951 c -0.67705,-2.28498 -0.17263,-4.86279 0.44711,-7.13895 0.38564,-1.76954 1.35377,-4.08172 3.34712,-2.32651 3.08521,1.45379 6.25407,2.78923 9.17103,4.55856 0.56452,1.95889 -0.35601,4.80967 -2.98006,4.17812 -3.32781,0.1758 -6.66037,0.78765 -9.9852,0.72878 z m 8.50229,-9.26503 c -1.84864,-0.96228 -3.7841,-1.80994 -5.49048,-3.00964 0.45237,-2.13078 2.35024,-3.67301 3.79101,-5.22183 1.41273,-1.59078 4.21395,-3.59307 5.11888,-0.41465 1.56836,2.76283 3.47558,5.35877 4.72026,8.28899 -0.99139,1.80511 -2.71758,3.96616 -4.71472,2.03705 -1.14374,-0.55569 -2.28498,-1.11653 -3.42495,-1.67992 z m 22.2083,1.27012 c -2.25948,-2.22068 1.67324,-4.41197 2.55279,-6.41742 1.48826,-1.32052 2.55381,-4.53129 4.46796,-4.54504 2.74307,1.91566 4.8912,4.66282 6.43357,7.59459 -2.33605,1.68924 -5.36636,2.2582 -8.00969,3.41278 -1.91322,0.38265 -4.16371,2.5502 -5.44463,-0.0449 z m -4.02293,-2.55073 c -2.9639,-0.44375 -1.60501,-3.83778 -1.74916,-5.87792 0.16932,-2.40313 0.21747,-4.83118 0.63332,-7.20593 2.19866,-0.19074 4.34383,0.81638 6.42011,1.45953 1.60457,0.6852 5.49979,1.59269 3.02998,3.773 -2.14128,2.85775 -4.19694,5.8463 -6.72959,8.36384 -0.55428,-0.096 -1.08154,-0.31187 -1.60466,-0.51252 z m -8.7126,-0.85522 c -1.58264,-2.37349 -2.77224,-4.98508 -4.45687,-7.29728 -1.0894,-1.32715 -1.74074,-3.32988 0.675,-3.53194 2.82758,-0.93065 5.77173,-1.69666 8.75766,-1.78153 1.02494,1.71088 0.14653,4.29317 0.27316,6.35189 -0.34739,2.14056 0.23984,4.85527 -0.94897,6.58791 -1.64869,-0.1534 -3.42881,1.83682 -4.29998,-0.32905 z m 2.17684,-13.35791 c -1.09187,-0.4939 2.4378,-0.39735 3.16774,-0.38651 0.51546,0.063 4.30266,0.0791 2.7098,0.29547 -1.93547,0.30512 -3.93669,0.37357 -5.87754,0.091 z"
         id="path4069" />
      <path
         style="fill:#eb9d12"
         d="m 223.16547,625.60193 c -2.66863,-0.4615 -5.51362,-0.79466 -7.83993,-2.27723 -1.19815,-2.09569 -4.36791,-1.70297 -5.19516,-4.0878 -1.43997,-0.97639 -2.52361,-2.88321 -0.28296,-3.71493 1.02392,-0.63346 1.69795,-1.93673 0.15203,-0.78992 -1.20442,1.52594 -4.34756,2.20639 -4.25151,-0.52919 -0.7588,-2.40944 -2.52947,-4.65041 -2.26158,-7.30083 1.85783,-0.98482 4.27599,-0.61575 6.3594,-1.00586 2.03364,0.22712 4.97698,-1.31603 6.4599,0.37835 0.23157,0.86742 1.32874,1.95775 1.03582,2.78077 -1.67998,1.92385 -4.17462,2.91282 -5.79512,4.90315 2.36598,-1.06231 4.17087,-3.02822 6.44166,-4.23956 1.16081,0.25683 2.36138,1.4448 3.36196,2.20455 -0.96518,3.73051 -2.58639,7.24241 -3.85729,10.86518 0.0212,1.99316 2.89298,0.73904 2.53556,-0.96343 1.14022,-3.01533 2.03239,-6.1602 3.494,-9.03477 1.16366,-0.52731 2.61233,-0.0121 3.89714,0.0103 0.43521,0.7681 0.53822,1.92682 0.84562,2.8452 0.88146,2.97069 1.2948,6.09381 2.4041,8.98416 2.08847,-0.35038 3.77732,-1.94341 5.93598,-2.48122 2.12562,-0.3958 3.9986,-3.65803 5.94778,-2.84266 -0.87291,2.11582 -3.70518,2.51846 -5.5084,3.6857 -3.7769,2.5003 -8.54167,2.6049 -12.91766,2.67341 -0.32078,-0.009 -0.64399,-0.0209 -0.96134,-0.0634 z m 19.84932,-8.87745 c -0.73014,-2.09017 -2.75903,-2.19682 -4.17947,-3.79771 -1.46621,-1.34308 -2.8954,-2.72882 -4.43491,-3.98936 0.52133,-1.11803 1.16678,-2.17604 1.97375,-3.11164 4.16349,0.65153 8.31994,1.48523 12.47799,2.05902 2.37483,-2.06088 -2.05614,-2.32573 -3.40883,-2.56372 -2.91935,-0.5354 -5.84859,-1.02835 -8.74971,-1.65585 -0.73629,-2.19814 -0.37764,-4.48128 2.31635,-4.717 2.94555,-1.17056 5.9599,-2.18414 8.87433,-3.4224 0.85405,-0.80111 1.02076,-2.33988 1.50076,-0.49661 0.84831,2.02343 0.57353,4.29961 1.3673,6.34416 0.35755,2.92595 -0.3789,5.87668 -1.22208,8.6571 -0.89599,2.18058 -2.10602,4.2173 -3.41764,6.15757 -0.89139,1.15722 -2.00102,2.28533 -3.09784,0.53644 z m -39.81967,-6.44143 c 0.55182,-1.26671 0.61168,0.83433 0,0 z m 0.0605,-5.73951 c -0.67705,-2.28498 -0.17263,-4.86279 0.44711,-7.13895 0.38564,-1.76954 1.35377,-4.08172 3.34712,-2.32651 3.08521,1.45379 6.25407,2.78923 9.17103,4.55856 0.56452,1.95889 -0.35601,4.80967 -2.98006,4.17812 -3.32781,0.1758 -6.66037,0.78765 -9.9852,0.72878 z m 8.50229,-9.26503 c -1.84864,-0.96228 -3.7841,-1.80994 -5.49048,-3.00964 0.45237,-2.13078 2.35024,-3.67301 3.79101,-5.22183 1.41273,-1.59078 4.21395,-3.59307 5.11888,-0.41465 1.56836,2.76283 3.47558,5.35877 4.72026,8.28899 -0.99139,1.80511 -2.71758,3.96616 -4.71472,2.03705 -1.14374,-0.55569 -2.28498,-1.11653 -3.42495,-1.67992 z m 22.2083,1.27012 c -2.25948,-2.22068 1.67324,-4.41197 2.55279,-6.41742 1.48826,-1.32052 2.55381,-4.53129 4.46796,-4.54504 2.74307,1.91566 4.8912,4.66282 6.43357,7.59459 -2.33605,1.68924 -5.36636,2.2582 -8.00969,3.41278 -1.91322,0.38265 -4.16371,2.5502 -5.44463,-0.0449 z m -4.02293,-2.55073 c -2.9639,-0.44375 -1.60501,-3.83778 -1.74916,-5.87792 0.16932,-2.40313 0.21747,-4.83118 0.63332,-7.20593 2.19866,-0.19074 4.34383,0.81638 6.42011,1.45953 1.60457,0.6852 5.49979,1.59269 3.02998,3.773 -2.14128,2.85775 -4.19694,5.8463 -6.72959,8.36384 -0.55428,-0.096 -1.08154,-0.31187 -1.60466,-0.51252 z m -8.7126,-0.85522 c -1.58264,-2.37349 -2.77224,-4.98508 -4.45687,-7.29728 -1.0894,-1.32715 -1.74074,-3.32988 0.675,-3.53194 2.82758,-0.93065 5.77173,-1.69666 8.75766,-1.78153 1.02494,1.71088 0.14653,4.29317 0.27316,6.35189 -0.34739,2.14056 0.23984,4.85527 -0.94897,6.58791 -1.64869,-0.1534 -3.42881,1.83682 -4.29998,-0.32905 z m 2.17684,-13.35791 c -1.09187,-0.4939 2.4378,-0.39735 3.16774,-0.38651 0.51546,0.063 4.30266,0.0791 2.7098,0.29547 -1.93547,0.30512 -3.93669,0.37357 -5.87754,0.091 z"
         id="path4067" />
      <path
         style="fill:#f6622e"
         d="m 223.16547,625.60193 c -2.66863,-0.4615 -5.51362,-0.79466 -7.83993,-2.27723 -1.20138,-2.09601 -4.37033,-1.70573 -5.20068,-4.09259 -0.87334,-0.5639 -2.7739,-3.31046 -0.65261,-1.6069 1.94934,1.43985 3.49241,3.7777 6.00819,4.62051 2.04687,1.10961 4.08603,2.07023 6.53696,2.08704 3.39866,0.55933 6.90386,0.51538 10.29274,-0.0602 3.1754,-1.14517 6.40775,-2.3357 8.98562,-4.60528 2.50034,-1.5563 0.20381,1.70918 -1.06867,1.76544 -2.58447,1.00368 -4.77121,2.90726 -7.54589,3.41259 -3.10854,0.70659 -6.33684,0.94596 -9.51573,0.75664 z m -5.53463,-4.32085 c 0.0936,-2.07233 0.87967,0.65942 0,0 l 0,0 z m 0.5723,-3.48813 c 0.9312,-1.98196 0.76237,1.62105 0,0 z m 25.65887,-0.36898 c 1.18249,-1.63561 2.4494,-3.35986 3.37644,-5.21806 0.75127,-1.91588 2.04858,-3.86234 2.21445,-5.86907 -2.14768,-1.08888 -4.78237,-0.94434 -7.11189,-1.57602 -1.75694,-0.87714 -5.54335,0.14314 -5.8184,-2.20241 -1.1773,-2.81749 1.86404,-3.38411 3.82946,-4.12695 2.50455,-0.98172 5.064,-1.84282 7.53226,-2.90564 0.85406,-0.80111 1.02074,-2.33989 1.50075,-0.49661 0.84831,2.02343 0.57353,4.29961 1.3673,6.34416 0.35755,2.92595 -0.3789,5.87668 -1.22208,8.6571 -0.96292,2.24254 -2.14691,4.40436 -3.56745,6.37071 -0.39106,0.29149 -1.73046,1.98041 -2.10084,1.02279 z m -37.5764,-1.76227 c -0.7763,-2.02623 -1.69258,-4.1648 -2.50116,-6.28218 -0.931,-1.78074 -0.10139,-3.50636 2.06979,-3.09362 3.27525,-0.2609 6.55232,-0.81008 9.84048,-0.7065 0.96886,0.81695 1.26897,2.2236 1.85693,3.34296 -3.08119,2.33319 -6.05453,4.84344 -9.27449,6.97327 -0.70335,0.063 -1.52454,0.55093 -1.99155,-0.23393 z m -3.09049,-5.37865 c 0.55182,-1.26671 0.61168,0.83433 0,0 z m 0.0605,-5.73951 c -0.67705,-2.28498 -0.17263,-4.86279 0.44711,-7.13895 0.38564,-1.76954 1.35377,-4.08172 3.34712,-2.32651 3.08521,1.45379 6.25407,2.78923 9.17103,4.55856 0.56452,1.95889 -0.35601,4.80967 -2.98006,4.17812 -3.32781,0.1758 -6.66037,0.78765 -9.9852,0.72878 z m 8.50229,-9.26503 c -1.84864,-0.96228 -3.7841,-1.80994 -5.49048,-3.00964 0.45237,-2.13078 2.35024,-3.67301 3.79101,-5.22183 1.41273,-1.59078 4.21395,-3.59307 5.11888,-0.41465 1.56836,2.76283 3.47558,5.35877 4.72026,8.28899 -0.99139,1.80511 -2.71758,3.96616 -4.71472,2.03705 -1.14374,-0.55569 -2.28498,-1.11653 -3.42495,-1.67992 z m 22.2083,1.27012 c -2.25948,-2.22068 1.67324,-4.41197 2.55279,-6.41742 1.48826,-1.32052 2.55381,-4.53129 4.46796,-4.54504 2.74307,1.91566 4.8912,4.66282 6.43357,7.59459 -2.33605,1.68924 -5.36636,2.2582 -8.00969,3.41278 -1.91322,0.38265 -4.16371,2.5502 -5.44463,-0.0449 z m -4.02293,-2.55073 c -2.9639,-0.44375 -1.60501,-3.83778 -1.74916,-5.87792 0.16932,-2.40313 0.21747,-4.83118 0.63332,-7.20593 2.19866,-0.19074 4.34383,0.81638 6.42011,1.45953 1.60457,0.6852 5.49979,1.59269 3.02998,3.773 -2.14128,2.85775 -4.19694,5.8463 -6.72959,8.36384 -0.55428,-0.096 -1.08154,-0.31187 -1.60466,-0.51252 z m -8.7126,-0.85522 c -1.58264,-2.37349 -2.77224,-4.98508 -4.45687,-7.29728 -1.0894,-1.32715 -1.74074,-3.32988 0.675,-3.53194 2.82758,-0.93065 5.77173,-1.69666 8.75766,-1.78153 1.02494,1.71088 0.14653,4.29317 0.27316,6.35189 -0.34739,2.14056 0.23984,4.85527 -0.94897,6.58791 -1.64869,-0.1534 -3.42881,1.83682 -4.29998,-0.32905 z m 2.17684,-13.35791 c -1.09187,-0.4939 2.4378,-0.39735 3.16774,-0.38651 0.51546,0.063 4.30266,0.0791 2.7098,0.29547 -1.93547,0.30512 -3.93669,0.37357 -5.87754,0.091 z"
         id="path4065" />
      <path
         style="fill:#f43838"
         d="m 221.71308,625.38831 c -2.22626,-0.42009 -4.54345,-0.86018 -6.49887,-2.05478 0.22941,-1.60717 3.05353,0.89862 4.32117,0.6696 3.68725,0.9804 7.57456,0.70965 11.34894,0.55222 2.46618,-0.49804 4.8652,-1.47655 7.10376,-2.63031 1.48389,-0.3355 3.51259,-3.36176 4.53454,-2.35224 -1.61812,2.21041 -4.60475,2.59125 -6.73438,4.16217 -4.3155,1.97502 -9.42378,2.2029 -14.07516,1.65334 z m -10.59034,-4.73861 c -2.31012,-2.17749 2.91871,1.43711 0.28712,0.19287 l -0.28712,-0.19287 0,0 z m 32.73927,-3.22573 c 1.18249,-1.63561 2.4494,-3.35986 3.37644,-5.21806 0.75127,-1.91588 2.04858,-3.86234 2.21444,-5.86907 -2.14767,-1.08888 -4.78236,-0.94434 -7.11188,-1.57602 -1.75694,-0.87714 -5.54335,0.14314 -5.8184,-2.20241 -1.1773,-2.81749 1.86404,-3.38411 3.82946,-4.12695 2.50455,-0.98172 5.064,-1.84282 7.53226,-2.90564 0.85406,-0.80111 1.02074,-2.33989 1.50075,-0.49661 0.84831,2.02343 0.57353,4.29961 1.3673,6.34416 0.35755,2.92595 -0.3789,5.87668 -1.22208,8.6571 -0.96292,2.24254 -2.14691,4.40436 -3.56745,6.37071 -0.39106,0.29149 -1.73046,1.98041 -2.10084,1.02279 z m -37.61094,-1.79831 c -1.84441,-3.78574 2.40214,1.8554 0,0 z m -3.05595,-5.34261 c 0.55182,-1.26671 0.61168,0.83433 0,0 z m 30.7711,-13.73442 c -2.25948,-2.22068 1.67324,-4.41197 2.55279,-6.41742 1.48826,-1.32052 2.55381,-4.53129 4.46796,-4.54504 2.74307,1.91566 4.8912,4.66282 6.43357,7.59459 -2.33605,1.68924 -5.36636,2.2582 -8.00969,3.41278 -1.91322,0.38265 -4.16371,2.5502 -5.44463,-0.0449 z m -20.60438,-0.71228 c -2.27599,-1.11942 -4.47596,-2.42304 -6.77721,-3.45011 -0.0655,-1.79335 1.92608,-3.43367 3.22074,-4.68516 1.46788,-1.22691 3.91618,-4.3964 4.94829,-1.18408 1.75209,2.71459 3.44352,5.47854 4.90187,8.36263 -1.03456,1.70807 -2.67099,3.6971 -4.59487,1.80109 -0.56776,-0.27846 -1.1339,-0.5602 -1.69882,-0.84437 z m 16.58145,-1.83845 c -2.9639,-0.44375 -1.60501,-3.83778 -1.74916,-5.87792 0.16932,-2.40313 0.21747,-4.83118 0.63332,-7.20593 2.19866,-0.19074 4.34383,0.81638 6.42011,1.45953 1.60457,0.6852 5.49979,1.59269 3.02998,3.773 -2.14128,2.85775 -4.19694,5.8463 -6.72959,8.36384 -0.55428,-0.096 -1.08154,-0.31187 -1.60466,-0.51252 z m -8.7126,-0.85522 c -1.58264,-2.37349 -2.77224,-4.98508 -4.45687,-7.29728 -1.0894,-1.32715 -1.74074,-3.32988 0.675,-3.53194 2.82758,-0.93065 5.77173,-1.69666 8.75766,-1.78153 1.02494,1.71088 0.14653,4.29317 0.27316,6.35189 -0.34739,2.14056 0.23984,4.85527 -0.94897,6.58791 -1.64869,-0.1534 -3.42881,1.83682 -4.29998,-0.32905 z m 2.17684,-13.35791 c -1.09187,-0.4939 2.4378,-0.39735 3.16774,-0.38651 0.51546,0.063 4.30266,0.0791 2.7098,0.29547 -1.93547,0.30512 -3.93669,0.37357 -5.87754,0.091 z"
         id="path4063" />
      <path
         style="fill:#5d6428"
         d="m 221.71308,625.38831 c -2.22626,-0.42009 -4.54345,-0.86018 -6.49887,-2.05478 0.22941,-1.60717 3.05353,0.89862 4.32117,0.6696 3.68725,0.9804 7.57456,0.70965 11.34894,0.55222 2.46618,-0.49804 4.8652,-1.47655 7.10376,-2.63031 1.48389,-0.3355 3.51259,-3.36176 4.53454,-2.35224 -1.61812,2.21041 -4.60475,2.59125 -6.73438,4.16217 -4.3155,1.97502 -9.42378,2.2029 -14.07516,1.65334 z m -10.59034,-4.73861 c -2.31012,-2.17749 2.91871,1.43711 0.28712,0.19287 l -0.28712,-0.19287 0,0 z m 32.73927,-3.22573 c 1.18249,-1.63561 2.4494,-3.35986 3.37644,-5.21806 0.75127,-1.91588 2.04858,-3.86234 2.21444,-5.86907 -2.14767,-1.08888 -4.78236,-0.94434 -7.11188,-1.57602 -1.75694,-0.87714 -5.54335,0.14314 -5.8184,-2.20241 -1.1773,-2.81749 1.86404,-3.38411 3.82946,-4.12695 2.50455,-0.98172 5.064,-1.84282 7.53226,-2.90564 0.85406,-0.80111 1.02074,-2.33989 1.50075,-0.49661 0.84831,2.02343 0.57353,4.29961 1.3673,6.34416 0.35755,2.92595 -0.3789,5.87668 -1.22208,8.6571 -0.96292,2.24254 -2.14691,4.40436 -3.56745,6.37071 -0.39106,0.29149 -1.73046,1.98041 -2.10084,1.02279 z m -37.61094,-1.79831 c -1.84441,-3.78574 2.40214,1.8554 0,0 z m -3.05595,-5.34261 c 0.55182,-1.26671 0.61168,0.83433 0,0 z m 30.7711,-13.73442 c -2.25948,-2.22068 1.67324,-4.41197 2.55279,-6.41742 1.48826,-1.32052 2.55381,-4.53129 4.46796,-4.54504 2.74307,1.91566 4.8912,4.66282 6.43357,7.59459 -2.33605,1.68924 -5.36636,2.2582 -8.00969,3.41278 -1.91322,0.38265 -4.16371,2.5502 -5.44463,-0.0449 z m -4.02293,-2.55073 c -2.9639,-0.44375 -1.60501,-3.83778 -1.74916,-5.87792 0.16932,-2.40313 0.21747,-4.83118 0.63332,-7.20593 2.19866,-0.19074 4.34383,0.81638 6.42011,1.45953 1.60457,0.6852 5.49979,1.59269 3.02998,3.773 -2.14128,2.85775 -4.19694,5.8463 -6.72959,8.36384 -0.55428,-0.096 -1.08154,-0.31187 -1.60466,-0.51252 z m -8.7126,-0.85522 c -1.58264,-2.37349 -2.77224,-4.98508 -4.45687,-7.29728 -1.0894,-1.32715 -1.74074,-3.32988 0.675,-3.53194 2.82758,-0.93065 5.77173,-1.69666 8.75766,-1.78153 1.02494,1.71088 0.14653,4.29317 0.27316,6.35189 -0.34739,2.14056 0.23984,4.85527 -0.94897,6.58791 -1.64869,-0.1534 -3.42881,1.83682 -4.29998,-0.32905 z m 2.17684,-13.35791 c -1.09187,-0.4939 2.4378,-0.39735 3.16774,-0.38651 0.51546,0.063 4.30266,0.0791 2.7098,0.29547 -1.93547,0.30512 -3.93669,0.37357 -5.87754,0.091 z"
         id="path4061" />
      <path
         style="fill:#161c32"
         d="m 230.79051,593.93567 c -0.77004,-0.76782 -3.00383,0.001 -2.4533,-1.59787 0.17108,-3.66717 0.23364,-7.34443 0.63782,-10.99578 3.52691,0.35936 7.04332,1.43126 10.0778,3.28025 -2.41203,3.28346 -4.78582,6.61882 -7.4957,9.6616 -0.27254,-0.0756 -0.5197,-0.21516 -0.76662,-0.3482 z m -9.8742,-1.64022 c -1.65932,-2.59562 -2.95096,-5.40725 -4.76234,-7.90969 -0.96497,-2.18806 3.30486,-2.18703 4.69446,-2.88651 1.66887,-0.0632 4.88207,-1.55861 5.58586,0.24809 -0.0849,3.76031 -0.15557,7.5423 -0.58964,11.27801 -1.92821,0.54044 -3.9842,1.99785 -4.92834,-0.7299 z"
         id="path4059" />
    </g>
    <rect
       style="color:#000000;fill:#ffffff;fill-opacity:1;fill-rule:nonzero;stroke:none;stroke-width:0.94999999;marker:none;visibility:visible;display:inline;overflow:visible;enable-background:accumulate"
       id="rect4151"
       width="520.22473"
       height="94.629158"
       x="-232.29826"
       y="791.51764"
       transform="matrix(1,0,0.49869418,0.86677801,0,0)" />
    <text
       xml:space="preserve"
       style="font-size:40px;font-style:normal;font-variant:normal;font-weight:bold;font-stretch:normal;fill:none;stroke:#000000;stroke-opacity:1;font-family:David;-inkscape-font-specification:David Bold"
       x="182.72623"
       y="728.00812"
       id="text2816-52"><tspan
         sodipodi:role="line"
         x="182.72623"
         y="728.00812"
         style="font-size:56px;font-style:normal;font-variant:normal;font-weight:bold;font-stretch:normal;fill:#1d1d1d;fill-opacity:1;stroke:none;font-family:Calibri;-inkscape-font-specification:Calibri Bold"
         id="tspan2830-7">Universal <tspan
   style="font-weight:normal;-inkscape-font-specification:Calibri"
   id="tspan4155">Indicator </tspan></tspan></text>
    <text
       xml:space="preserve"
       style="font-size:40px;font-style:normal;font-variant:normal;font-weight:bold;font-stretch:normal;fill:none;stroke:#000000;stroke-opacity:1;font-family:Calibri;-inkscape-font-specification:Calibri Bold"
       x="52.63158"
       y="537.3313"
       id="text2816"><tspan
         sodipodi:role="line"
         x="52.63158"
         y="537.3313"
         style="font-size:56px;font-style:normal;font-variant:normal;font-weight:bold;font-stretch:normal;fill:none;stroke:#000000;stroke-opacity:1;font-family:Calibri;-inkscape-font-specification:Calibri Bold"
         id="tspan2830">Universal </tspan></text>
    <g
       id="g3831"
       transform="matrix(0,-0.61503072,0.5710085,0,-52.018342,630.99991)">
      <rect
         y="577.84143"
         x="147.63722"
         height="9.5060692"
         width="9.0086727"
         id="rect2875"
         style="color:#000000;fill:none;stroke:#ff0000;stroke-width:0.94999999;stroke-opacity:1;marker:none;visibility:visible;display:inline;overflow:visible;enable-background:accumulate" />
      <rect
         y="577.84143"
         x="158.18904"
         height="9.5060692"
         width="9.0086727"
         id="rect2875-4"
         style="color:#000000;fill:none;stroke:#ff2000;stroke-width:0.94999999;stroke-opacity:1;marker:none;visibility:visible;display:inline;overflow:visible;enable-background:accumulate" />
      <rect
         y="577.84143"
         x="168.74086"
         height="9.5060692"
         width="9.0086727"
         id="rect2875-4-0"
         style="color:#000000;fill:none;stroke:#ff4d00;stroke-width:0.94999999;stroke-opacity:1;marker:none;visibility:visible;display:inline;overflow:visible;enable-background:accumulate" />
      <rect
         y="577.84143"
         x="179.29268"
         height="9.5060692"
         width="9.0086727"
         id="rect2875-4-0-9"
         style="color:#000000;fill:none;stroke:#ff8e00;stroke-width:0.94999999;stroke-opacity:1;marker:none;visibility:visible;display:inline;overflow:visible;enable-background:accumulate" />
      <rect
         y="577.84143"
         x="189.84447"
         height="9.5060692"
         width="9.0086727"
         id="rect2875-4-0-9-4"
         style="color:#000000;fill:none;stroke:#ffe000;stroke-width:0.94999999;stroke-opacity:1;marker:none;visibility:visible;display:inline;overflow:visible;enable-background:accumulate" />
      <rect
         y="577.84143"
         x="200.39629"
         height="9.5060692"
         width="9.0086727"
         id="rect2875-4-0-9-4-8"
         style="color:#000000;fill:none;stroke:#ceff00;stroke-width:0.94999999;stroke-opacity:1;marker:none;visibility:visible;display:inline;overflow:visible;enable-background:accumulate" />
      <rect
         y="577.84143"
         x="210.94814"
         height="9.5060692"
         width="9.0086727"
         id="rect2875-4-0-9-4-8-4"
         style="color:#000000;fill:none;stroke:#97ff00;stroke-width:0.94999999;stroke-opacity:1;marker:none;visibility:visible;display:inline;overflow:visible;enable-background:accumulate" />
    </g>
    <text
       xml:space="preserve"
       style="font-size:40px;font-style:normal;font-variant:normal;font-weight:bold;font-stretch:normal;fill:none;stroke:#000000;stroke-opacity:1;font-family:Calibri;-inkscape-font-specification:Calibri Bold"
       x="288.63159"
       y="537.3313"
       id="text2816-5"><tspan
         sodipodi:role="line"
         x="288.63159"
         y="537.3313"
         style="font-size:56px;font-style:normal;font-variant:normal;font-weight:bold;font-stretch:normal;fill:none;stroke:#000000;stroke-opacity:1;font-family:Calibri;-inkscape-font-specification:Calibri Bold"
         id="tspan2830-5">lndicator</tspan></text>
    <g
       style="font-size:40px;font-style:normal;font-variant:normal;font-weight:bold;font-stretch:normal;fill:none;stroke:#000000;stroke-opacity:1;font-family:Calibri;-inkscape-font-specification:Calibri Bold"
       id="text2816-1" />
    <text
       xml:space="preserve"
       style="font-size:40px;font-style:normal;font-variant:normal;font-weight:bold;font-stretch:normal;fill:#3e3030;fill-opacity:1;stroke:none;font-family:Calibri;-inkscape-font-specification:Calibri Bold"
       x="72.829323"
       y="353.10147"
       id="text2816-17"><tspan
         sodipodi:role="line"
         x="72.829323"
         y="353.10147"
         style="font-size:56px;font-style:normal;font-variant:normal;font-weight:bold;font-stretch:normal;fill:#3e3030;fill-opacity:1;stroke:none;font-family:Calibri;-inkscape-font-specification:Calibri Bold"
         id="tspan2830-4">Universal </tspan></text>
    <text
       xml:space="preserve"
       style="font-size:40px;font-style:normal;font-variant:normal;font-weight:bold;font-stretch:normal;fill:#3e3030;fill-opacity:1;stroke:none;font-family:Calibri;-inkscape-font-specification:Calibri Bold"
       x="338.82932"
       y="353.10147"
       id="text2816-5-0"><tspan
         sodipodi:role="line"
         x="338.82932"
         y="353.10147"
         style="font-size:56px;font-style:normal;font-variant:normal;font-weight:bold;font-stretch:normal;fill:#3e3030;fill-opacity:1;stroke:none;font-family:Calibri;-inkscape-font-specification:Calibri Bold"
         id="tspan2830-5-9">lndicator</tspan></text>
    <path
       id="path3690"
       style="font-size:56px;font-style:normal;font-variant:normal;font-weight:bold;font-stretch:normal;fill:#44e88a;fill-opacity:1;stroke:none;font-family:Calibri;-inkscape-font-specification:Calibri Bold"
       d="m 297.15029,314.74366 c -0.18229,-10e-6 -0.3418,-0.0547 -0.47852,-0.16406 -0.13672,-0.10939 -0.25065,-0.29624 -0.34179,-0.56055 -0.0912,-0.26433 -0.15951,-0.61525 -0.20508,-1.05274 -0.0456,-0.4375 -0.0684,-0.99349 -0.0684,-1.66796 0,-0.67449 0.0228,-1.23048 0.0684,-1.66797 0.0456,-0.43751 0.11393,-0.78842 0.20508,-1.05274 0.0911,-0.26432 0.20507,-0.45117 0.34179,-0.56054 0.13672,-0.10938 0.29623,-0.16407 0.47852,-0.16407 l 35.95703,0 c 0.18225,0 0.34632,0.0547 0.49219,0.16407 0.14579,0.10937 0.26884,0.29622 0.36914,0.56054 0.10022,0.26432 0.17769,0.61523 0.23242,1.05274 0.0546,0.43749 0.082,0.99348 0.082,1.66797 -4e-5,0.67447 -0.0274,1.23046 -0.082,1.66796 -0.0547,0.43749 -0.1322,0.78841 -0.23242,1.05274 -0.1003,0.26431 -0.22335,0.45116 -0.36914,0.56055 -0.14587,0.10936 -0.30994,0.16405 -0.49219,0.16406 z" />
    <path
       id="path3690-8"
       style="font-size:56px;font-style:normal;font-variant:normal;font-weight:bold;font-stretch:normal;fill:#9be844;fill-opacity:1;stroke:none;font-family:Calibri;-inkscape-font-specification:Calibri Bold"
       d="m 297.15029,326.74366 c -0.18229,-10e-6 -0.3418,-0.0547 -0.47852,-0.16406 -0.13672,-0.10939 -0.25065,-0.29624 -0.34179,-0.56055 -0.0912,-0.26433 -0.15951,-0.61525 -0.20508,-1.05274 -0.0456,-0.4375 -0.0684,-0.99349 -0.0684,-1.66796 0,-0.67449 0.0228,-1.23048 0.0684,-1.66797 0.0456,-0.43751 0.11393,-0.78842 0.20508,-1.05274 0.0911,-0.26432 0.20507,-0.45117 0.34179,-0.56054 0.13672,-0.10938 0.29623,-0.16407 0.47852,-0.16407 l 35.95703,0 c 0.18225,0 0.34632,0.0547 0.49219,0.16407 0.14579,0.10937 0.26884,0.29622 0.36914,0.56054 0.10022,0.26432 0.17769,0.61523 0.23242,1.05274 0.0546,0.43749 0.082,0.99348 0.082,1.66797 -4e-5,0.67447 -0.0274,1.23046 -0.082,1.66796 -0.0547,0.43749 -0.1322,0.78841 -0.23242,1.05274 -0.1003,0.26431 -0.22335,0.45116 -0.36914,0.56055 -0.14587,0.10936 -0.30994,0.16405 -0.49219,0.16406 z" />
    <path
       id="path3690-8-2"
       style="font-size:56px;font-style:normal;font-variant:normal;font-weight:bold;font-stretch:normal;fill:#e5e844;fill-opacity:1;stroke:none;font-family:Calibri;-inkscape-font-specification:Calibri Bold"
       d="m 297.15029,338.74366 c -0.18229,-10e-6 -0.3418,-0.0547 -0.47852,-0.16406 -0.13672,-0.10939 -0.25065,-0.29624 -0.34179,-0.56055 -0.0912,-0.26433 -0.15951,-0.61525 -0.20508,-1.05274 -0.0456,-0.4375 -0.0684,-0.99349 -0.0684,-1.66796 0,-0.67449 0.0228,-1.23048 0.0684,-1.66797 0.0456,-0.43751 0.11393,-0.78842 0.20508,-1.05274 0.0911,-0.26432 0.20507,-0.45117 0.34179,-0.56054 0.13672,-0.10938 0.29623,-0.16407 0.47852,-0.16407 l 35.95703,0 c 0.18225,0 0.34632,0.0547 0.49219,0.16407 0.14579,0.10937 0.26884,0.29622 0.36914,0.56054 0.10022,0.26432 0.17769,0.61523 0.23242,1.05274 0.0546,0.43749 0.082,0.99348 0.082,1.66797 -4e-5,0.67447 -0.0274,1.23046 -0.082,1.66796 -0.0547,0.43749 -0.1322,0.78841 -0.23242,1.05274 -0.1003,0.26431 -0.22335,0.45116 -0.36914,0.56055 -0.14587,0.10936 -0.30994,0.16405 -0.49219,0.16406 z" />
    <path
       id="path3690-8-2-4"
       style="font-size:56px;font-style:normal;font-variant:normal;font-weight:bold;font-stretch:normal;fill:#e89d44;fill-opacity:1;stroke:none;font-family:Calibri;-inkscape-font-specification:Calibri Bold"
       d="m 297.15029,350.74366 c -0.18229,-10e-6 -0.3418,-0.0547 -0.47852,-0.16406 -0.13672,-0.10939 -0.25065,-0.29624 -0.34179,-0.56055 -0.0912,-0.26433 -0.15951,-0.61525 -0.20508,-1.05274 -0.0456,-0.4375 -0.0684,-0.99349 -0.0684,-1.66796 0,-0.67449 0.0228,-1.23048 0.0684,-1.66797 0.0456,-0.43751 0.11393,-0.78842 0.20508,-1.05274 0.0911,-0.26432 0.20507,-0.45117 0.34179,-0.56054 0.13672,-0.10938 0.29623,-0.16407 0.47852,-0.16407 l 35.95703,0 c 0.18225,0 0.34632,0.0547 0.49219,0.16407 0.14579,0.10937 0.26884,0.29622 0.36914,0.56054 0.10022,0.26432 0.17769,0.61523 0.23242,1.05274 0.0546,0.43749 0.082,0.99348 0.082,1.66797 -4e-5,0.67447 -0.0274,1.23046 -0.082,1.66796 -0.0547,0.43749 -0.1322,0.78841 -0.23242,1.05274 -0.1003,0.26431 -0.22335,0.45116 -0.36914,0.56055 -0.14587,0.10936 -0.30994,0.16405 -0.49219,0.16406 z" />
    <path
       id="path3690-8-2-4-5"
       style="font-size:56px;font-style:normal;font-variant:normal;font-weight:bold;font-stretch:normal;fill:#e96343;fill-opacity:1;stroke:none;font-family:Calibri;-inkscape-font-specification:Calibri Bold"
       d="m 297.15029,362.74366 c -0.18229,-10e-6 -0.3418,-0.0547 -0.47852,-0.16406 -0.13672,-0.10939 -0.25065,-0.29624 -0.34179,-0.56055 -0.0912,-0.26433 -0.15951,-0.61525 -0.20508,-1.05274 -0.0456,-0.4375 -0.0684,-0.99349 -0.0684,-1.66796 0,-0.67449 0.0228,-1.23048 0.0684,-1.66797 0.0456,-0.43751 0.11393,-0.78842 0.20508,-1.05274 0.0911,-0.26432 0.20507,-0.45117 0.34179,-0.56054 0.13672,-0.10938 0.29623,-0.16407 0.47852,-0.16407 l 35.95703,0 c 0.18225,0 0.34632,0.0547 0.49219,0.16407 0.14579,0.10937 0.26884,0.29622 0.36914,0.56054 0.10022,0.26432 0.17769,0.61523 0.23242,1.05274 0.0546,0.43749 0.082,0.99348 0.082,1.66797 -4e-5,0.67447 -0.0274,1.23046 -0.082,1.66796 -0.0547,0.43749 -0.1322,0.78841 -0.23242,1.05274 -0.1003,0.26431 -0.22335,0.45116 -0.36914,0.56055 -0.14587,0.10936 -0.30994,0.16405 -0.49219,0.16406 z" />
  </g>
</svg>
