<?xml version="1.0" encoding="UTF-8" standalone="no"?>
<!-- Created with Inkscape (http://www.inkscape.org/) -->

<svg
   xmlns:dc="http://purl.org/dc/elements/1.1/"
   xmlns:cc="http://creativecommons.org/ns#"
   xmlns:rdf="http://www.w3.org/1999/02/22-rdf-syntax-ns#"
   xmlns:svg="http://www.w3.org/2000/svg"
   xmlns="http://www.w3.org/2000/svg"
   xmlns:sodipodi="http://sodipodi.sourceforge.net/DTD/sodipodi-0.dtd"
   xmlns:inkscape="http://www.inkscape.org/namespaces/inkscape"
   width="744.09448819"
   height="1052.3622047"
   id="svg2"
   version="1.1"
   inkscape:version="0.47 r22583"
   sodipodi:docname="Universal Indicator Logo V1.svg"
   inkscape:export-filename="C:\Users\m\Documents\dev\Universal Indicator\Universal Indicator Logo V1.png"
   inkscape:export-xdpi="299.97424"
   inkscape:export-ydpi="299.97424">
  <defs
     id="defs4">
    <inkscape:perspective
       sodipodi:type="inkscape:persp3d"
       inkscape:vp_x="NaN : NaN : 1"
       inkscape:vp_y="NaN : NaN : 0"
       inkscape:vp_z="NaN : NaN : 1"
       inkscape:persp3d-origin="NaN : NaN : 1"
       id="perspective10" />
    <inkscape:perspective
       id="perspective3657"
       inkscape:persp3d-origin="0.5 : 0.33333333 : 1"
       inkscape:vp_z="1 : 0.5 : 1"
       inkscape:vp_y="0 : 1000 : 0"
       inkscape:vp_x="0 : 0.5 : 1"
       sodipodi:type="inkscape:persp3d" />
    <inkscape:perspective
       id="perspective3678"
       inkscape:persp3d-origin="0.5 : 0.33333333 : 1"
       inkscape:vp_z="1 : 0.5 : 1"
       inkscape:vp_y="0 : 1000 : 0"
       inkscape:vp_x="0 : 0.5 : 1"
       sodipodi:type="inkscape:persp3d" />
    <inkscape:perspective
       id="perspective3699"
       inkscape:persp3d-origin="0.5 : 0.33333333 : 1"
       inkscape:vp_z="1 : 0.5 : 1"
       inkscape:vp_y="0 : 1000 : 0"
       inkscape:vp_x="0 : 0.5 : 1"
       sodipodi:type="inkscape:persp3d" />
    <inkscape:perspective
       id="perspective3721"
       inkscape:persp3d-origin="0.5 : 0.33333333 : 1"
       inkscape:vp_z="1 : 0.5 : 1"
       inkscape:vp_y="0 : 1000 : 0"
       inkscape:vp_x="0 : 0.5 : 1"
       sodipodi:type="inkscape:persp3d" />
    <inkscape:perspective
       id="perspective3743"
       inkscape:persp3d-origin="0.5 : 0.33333333 : 1"
       inkscape:vp_z="1 : 0.5 : 1"
       inkscape:vp_y="0 : 1000 : 0"
       inkscape:vp_x="0 : 0.5 : 1"
       sodipodi:type="inkscape:persp3d" />
    <inkscape:perspective
       id="perspective3765"
       inkscape:persp3d-origin="0.5 : 0.33333333 : 1"
       inkscape:vp_z="1 : 0.5 : 1"
       inkscape:vp_y="0 : 1000 : 0"
       inkscape:vp_x="0 : 0.5 : 1"
       sodipodi:type="inkscape:persp3d" />
    <inkscape:perspective
       id="perspective3787"
       inkscape:persp3d-origin="0.5 : 0.33333333 : 1"
       inkscape:vp_z="1 : 0.5 : 1"
       inkscape:vp_y="0 : 1000 : 0"
       inkscape:vp_x="0 : 0.5 : 1"
       sodipodi:type="inkscape:persp3d" />
    <inkscape:perspective
       id="perspective3809"
       inkscape:persp3d-origin="0.5 : 0.33333333 : 1"
       inkscape:vp_z="1 : 0.5 : 1"
       inkscape:vp_y="0 : 1000 : 0"
       inkscape:vp_x="0 : 0.5 : 1"
       sodipodi:type="inkscape:persp3d" />
    <inkscape:perspective
       id="perspective3809-2"
       inkscape:persp3d-origin="0.5 : 0.33333333 : 1"
       inkscape:vp_z="1 : 0.5 : 1"
       inkscape:vp_y="0 : 1000 : 0"
       inkscape:vp_x="0 : 0.5 : 1"
       sodipodi:type="inkscape:persp3d" />
    <inkscape:perspective
       id="perspective3848"
       inkscape:persp3d-origin="0.5 : 0.33333333 : 1"
       inkscape:vp_z="1 : 0.5 : 1"
       inkscape:vp_y="0 : 1000 : 0"
       inkscape:vp_x="0 : 0.5 : 1"
       sodipodi:type="inkscape:persp3d" />
    <inkscape:perspective
       id="perspective3899"
       inkscape:persp3d-origin="0.5 : 0.33333333 : 1"
       inkscape:vp_z="1 : 0.5 : 1"
       inkscape:vp_y="0 : 1000 : 0"
       inkscape:vp_x="0 : 0.5 : 1"
       sodipodi:type="inkscape:persp3d" />
    <inkscape:perspective
       id="perspective3924"
       inkscape:persp3d-origin="0.5 : 0.33333333 : 1"
       inkscape:vp_z="1 : 0.5 : 1"
       inkscape:vp_y="0 : 1000 : 0"
       inkscape:vp_x="0 : 0.5 : 1"
       sodipodi:type="inkscape:persp3d" />
    <inkscape:perspective
       id="perspective4051"
       inkscape:persp3d-origin="0.5 : 0.33333333 : 1"
       inkscape:vp_z="1 : 0.5 : 1"
       inkscape:vp_y="0 : 1000 : 0"
       inkscape:vp_x="0 : 0.5 : 1"
       sodipodi:type="inkscape:persp3d" />
    <inkscape:perspective
       id="perspective4091"
       inkscape:persp3d-origin="0.5 : 0.33333333 : 1"
       inkscape:vp_z="1 : 0.5 : 1"
       inkscape:vp_y="0 : 1000 : 0"
       inkscape:vp_x="0 : 0.5 : 1"
       sodipodi:type="inkscape:persp3d" />
    <inkscape:perspective
       id="perspective4124"
       inkscape:persp3d-origin="0.5 : 0.33333333 : 1"
       inkscape:vp_z="1 : 0.5 : 1"
       inkscape:vp_y="0 : 1000 : 0"
       inkscape:vp_x="0 : 0.5 : 1"
       sodipodi:type="inkscape:persp3d" />
    <inkscape:perspective
       id="perspective2869"
       inkscape:persp3d-origin="0.5 : 0.33333333 : 1"
       inkscape:vp_z="1 : 0.5 : 1"
       inkscape:vp_y="0 : 1000 : 0"
       inkscape:vp_x="0 : 0.5 : 1"
       sodipodi:type="inkscape:persp3d" />
    <inkscape:perspective
       id="perspective3672"
       inkscape:persp3d-origin="0.5 : 0.33333333 : 1"
       inkscape:vp_z="1 : 0.5 : 1"
       inkscape:vp_y="0 : 1000 : 0"
       inkscape:vp_x="0 : 0.5 : 1"
       sodipodi:type="inkscape:persp3d" />
    <inkscape:perspective
       id="perspective3725"
       inkscape:persp3d-origin="0.5 : 0.33333333 : 1"
       inkscape:vp_z="1 : 0.5 : 1"
       inkscape:vp_y="0 : 1000 : 0"
       inkscape:vp_x="0 : 0.5 : 1"
       sodipodi:type="inkscape:persp3d" />
    <inkscape:perspective
       id="perspective3747"
       inkscape:persp3d-origin="0.5 : 0.33333333 : 1"
       inkscape:vp_z="1 : 0.5 : 1"
       inkscape:vp_y="0 : 1000 : 0"
       inkscape:vp_x="0 : 0.5 : 1"
       sodipodi:type="inkscape:persp3d" />
    <inkscape:perspective
       id="perspective3769"
       inkscape:persp3d-origin="0.5 : 0.33333333 : 1"
       inkscape:vp_z="1 : 0.5 : 1"
       inkscape:vp_y="0 : 1000 : 0"
       inkscape:vp_x="0 : 0.5 : 1"
       sodipodi:type="inkscape:persp3d" />
    <inkscape:perspective
       id="perspective3791"
       inkscape:persp3d-origin="0.5 : 0.33333333 : 1"
       inkscape:vp_z="1 : 0.5 : 1"
       inkscape:vp_y="0 : 1000 : 0"
       inkscape:vp_x="0 : 0.5 : 1"
       sodipodi:type="inkscape:persp3d" />
  </defs>
  <sodipodi:namedview
     id="base"
     pagecolor="#ffffff"
     bordercolor="#666666"
     borderopacity="1.0"
     inkscape:pageopacity="0.0"
     inkscape:pageshadow="2"
     inkscape:zoom="0.83039936"
     inkscape:cx="350.72031"
     inkscape:cy="847.28556"
     inkscape:document-units="px"
     inkscape:current-layer="layer1"
     showgrid="false"
     inkscape:window-width="1304"
     inkscape:window-height="746"
     inkscape:window-x="54"
     inkscape:window-y="-8"
     inkscape:window-maximized="1" />
  <metadata
     id="metadata7">
    <rdf:RDF>
      <cc:Work
         rdf:about="">
        <dc:format>image/svg+xml</dc:format>
        <dc:type
           rdf:resource="http://purl.org/dc/dcmitype/StillImage" />
        <dc:title></dc:title>
      </cc:Work>
    </rdf:RDF>
  </metadata>
  <g
     inkscape:label="Layer 1"
     inkscape:groupmode="layer"
     id="layer1">
    <g
       style="font-size:40px;font-style:normal;font-variant:normal;font-weight:bold;font-stretch:normal;fill:none;stroke:#000000;stroke-opacity:1;font-family:Calibri;-inkscape-font-specification:Calibri Bold"
       id="text2816-1" />
    <text
       xml:space="preserve"
       style="font-size:40px;font-style:normal;font-variant:normal;font-weight:bold;font-stretch:normal;fill:#3e3030;fill-opacity:1;stroke:none;font-family:Calibri;-inkscape-font-specification:Calibri Bold"
       x="72.829323"
       y="353.10147"
       id="text2816-17"><tspan
         sodipodi:role="line"
         x="72.829323"
         y="353.10147"
         style="font-size:56px;font-style:normal;font-variant:normal;font-weight:bold;font-stretch:normal;fill:#3e3030;fill-opacity:1;stroke:none;font-family:Calibri;-inkscape-font-specification:Calibri Bold"
         id="tspan2830-4">Universal </tspan></text>
    <text
       xml:space="preserve"
       style="font-size:40px;font-style:normal;font-variant:normal;font-weight:bold;font-stretch:normal;fill:#3e3030;fill-opacity:1;stroke:none;font-family:Calibri;-inkscape-font-specification:Calibri Bold"
       x="338.82932"
       y="353.10147"
       id="text2816-5-0"><tspan
         sodipodi:role="line"
         x="338.82932"
         y="353.10147"
         style="font-size:56px;font-style:normal;font-variant:normal;font-weight:bold;font-stretch:normal;fill:#3e3030;fill-opacity:1;stroke:none;font-family:Calibri;-inkscape-font-specification:Calibri Bold"
         id="tspan2830-5-9">lndicator</tspan></text>
    <path
       id="path3690"
       style="font-size:56px;font-style:normal;font-variant:normal;font-weight:bold;font-stretch:normal;fill:#44e88a;fill-opacity:1;stroke:none;font-family:Calibri;-inkscape-font-specification:Calibri Bold"
       d="m 297.15029,314.74366 c -0.18229,-10e-6 -0.3418,-0.0547 -0.47852,-0.16406 -0.13672,-0.10939 -0.25065,-0.29624 -0.34179,-0.56055 -0.0912,-0.26433 -0.15951,-0.61525 -0.20508,-1.05274 -0.0456,-0.4375 -0.0684,-0.99349 -0.0684,-1.66796 0,-0.67449 0.0228,-1.23048 0.0684,-1.66797 0.0456,-0.43751 0.11393,-0.78842 0.20508,-1.05274 0.0911,-0.26432 0.20507,-0.45117 0.34179,-0.56054 0.13672,-0.10938 0.29623,-0.16407 0.47852,-0.16407 l 35.95703,0 c 0.18225,0 0.34632,0.0547 0.49219,0.16407 0.14579,0.10937 0.26884,0.29622 0.36914,0.56054 0.10022,0.26432 0.17769,0.61523 0.23242,1.05274 0.0546,0.43749 0.082,0.99348 0.082,1.66797 -4e-5,0.67447 -0.0274,1.23046 -0.082,1.66796 -0.0547,0.43749 -0.1322,0.78841 -0.23242,1.05274 -0.1003,0.26431 -0.22335,0.45116 -0.36914,0.56055 -0.14587,0.10936 -0.30994,0.16405 -0.49219,0.16406 z" />
    <path
       id="path3690-8"
       style="font-size:56px;font-style:normal;font-variant:normal;font-weight:bold;font-stretch:normal;fill:#9be844;fill-opacity:1;stroke:none;font-family:Calibri;-inkscape-font-specification:Calibri Bold"
       d="m 297.15029,326.74366 c -0.18229,-10e-6 -0.3418,-0.0547 -0.47852,-0.16406 -0.13672,-0.10939 -0.25065,-0.29624 -0.34179,-0.56055 -0.0912,-0.26433 -0.15951,-0.61525 -0.20508,-1.05274 -0.0456,-0.4375 -0.0684,-0.99349 -0.0684,-1.66796 0,-0.67449 0.0228,-1.23048 0.0684,-1.66797 0.0456,-0.43751 0.11393,-0.78842 0.20508,-1.05274 0.0911,-0.26432 0.20507,-0.45117 0.34179,-0.56054 0.13672,-0.10938 0.29623,-0.16407 0.47852,-0.16407 l 35.95703,0 c 0.18225,0 0.34632,0.0547 0.49219,0.16407 0.14579,0.10937 0.26884,0.29622 0.36914,0.56054 0.10022,0.26432 0.17769,0.61523 0.23242,1.05274 0.0546,0.43749 0.082,0.99348 0.082,1.66797 -4e-5,0.67447 -0.0274,1.23046 -0.082,1.66796 -0.0547,0.43749 -0.1322,0.78841 -0.23242,1.05274 -0.1003,0.26431 -0.22335,0.45116 -0.36914,0.56055 -0.14587,0.10936 -0.30994,0.16405 -0.49219,0.16406 z" />
    <path
       id="path3690-8-2"
       style="font-size:56px;font-style:normal;font-variant:normal;font-weight:bold;font-stretch:normal;fill:#e5e844;fill-opacity:1;stroke:none;font-family:Calibri;-inkscape-font-specification:Calibri Bold"
       d="m 297.15029,338.74366 c -0.18229,-10e-6 -0.3418,-0.0547 -0.47852,-0.16406 -0.13672,-0.10939 -0.25065,-0.29624 -0.34179,-0.56055 -0.0912,-0.26433 -0.15951,-0.61525 -0.20508,-1.05274 -0.0456,-0.4375 -0.0684,-0.99349 -0.0684,-1.66796 0,-0.67449 0.0228,-1.23048 0.0684,-1.66797 0.0456,-0.43751 0.11393,-0.78842 0.20508,-1.05274 0.0911,-0.26432 0.20507,-0.45117 0.34179,-0.56054 0.13672,-0.10938 0.29623,-0.16407 0.47852,-0.16407 l 35.95703,0 c 0.18225,0 0.34632,0.0547 0.49219,0.16407 0.14579,0.10937 0.26884,0.29622 0.36914,0.56054 0.10022,0.26432 0.17769,0.61523 0.23242,1.05274 0.0546,0.43749 0.082,0.99348 0.082,1.66797 -4e-5,0.67447 -0.0274,1.23046 -0.082,1.66796 -0.0547,0.43749 -0.1322,0.78841 -0.23242,1.05274 -0.1003,0.26431 -0.22335,0.45116 -0.36914,0.56055 -0.14587,0.10936 -0.30994,0.16405 -0.49219,0.16406 z" />
    <path
       id="path3690-8-2-4"
       style="font-size:56px;font-style:normal;font-variant:normal;font-weight:bold;font-stretch:normal;fill:#e89d44;fill-opacity:1;stroke:none;font-family:Calibri;-inkscape-font-specification:Calibri Bold"
       d="m 297.15029,350.74366 c -0.18229,-10e-6 -0.3418,-0.0547 -0.47852,-0.16406 -0.13672,-0.10939 -0.25065,-0.29624 -0.34179,-0.56055 -0.0912,-0.26433 -0.15951,-0.61525 -0.20508,-1.05274 -0.0456,-0.4375 -0.0684,-0.99349 -0.0684,-1.66796 0,-0.67449 0.0228,-1.23048 0.0684,-1.66797 0.0456,-0.43751 0.11393,-0.78842 0.20508,-1.05274 0.0911,-0.26432 0.20507,-0.45117 0.34179,-0.56054 0.13672,-0.10938 0.29623,-0.16407 0.47852,-0.16407 l 35.95703,0 c 0.18225,0 0.34632,0.0547 0.49219,0.16407 0.14579,0.10937 0.26884,0.29622 0.36914,0.56054 0.10022,0.26432 0.17769,0.61523 0.23242,1.05274 0.0546,0.43749 0.082,0.99348 0.082,1.66797 -4e-5,0.67447 -0.0274,1.23046 -0.082,1.66796 -0.0547,0.43749 -0.1322,0.78841 -0.23242,1.05274 -0.1003,0.26431 -0.22335,0.45116 -0.36914,0.56055 -0.14587,0.10936 -0.30994,0.16405 -0.49219,0.16406 z" />
    <path
       id="path3690-8-2-4-5"
       style="font-size:56px;font-style:normal;font-variant:normal;font-weight:bold;font-stretch:normal;fill:#e96343;fill-opacity:1;stroke:none;font-family:Calibri;-inkscape-font-specification:Calibri Bold"
       d="m 297.15029,362.74366 c -0.18229,-10e-6 -0.3418,-0.0547 -0.47852,-0.16406 -0.13672,-0.10939 -0.25065,-0.29624 -0.34179,-0.56055 -0.0912,-0.26433 -0.15951,-0.61525 -0.20508,-1.05274 -0.0456,-0.4375 -0.0684,-0.99349 -0.0684,-1.66796 0,-0.67449 0.0228,-1.23048 0.0684,-1.66797 0.0456,-0.43751 0.11393,-0.78842 0.20508,-1.05274 0.0911,-0.26432 0.20507,-0.45117 0.34179,-0.56054 0.13672,-0.10938 0.29623,-0.16407 0.47852,-0.16407 l 35.95703,0 c 0.18225,0 0.34632,0.0547 0.49219,0.16407 0.14579,0.10937 0.26884,0.29622 0.36914,0.56054 0.10022,0.26432 0.17769,0.61523 0.23242,1.05274 0.0546,0.43749 0.082,0.99348 0.082,1.66797 -4e-5,0.67447 -0.0274,1.23046 -0.082,1.66796 -0.0547,0.43749 -0.1322,0.78841 -0.23242,1.05274 -0.1003,0.26431 -0.22335,0.45116 -0.36914,0.56055 -0.14587,0.10936 -0.30994,0.16405 -0.49219,0.16406 z" />
  </g>
</svg>
